<svg id="al93k4as9h1z" version="1.1" xmlns="http://www.w3.org/2000/svg" xmlns:xlink="http://www.w3.org/1999/xlink" width="290.25099678886806" height="77" viewBox="0 0 290.25099678886806 77" style="" ><svg x="2" y="2" ><path d="M20,0h246.25099678886806a20,20 0 0 1 20,20v33a20,20 0 0 1 -20,20h-246.25099678886806a20,20 0 0 1 -20,-20v-33a20,20 0 0 1 20,-20z" fill="#fff" stroke-width="0" ></path></svg><svg x="7" y="7" ><path d="M18,0h117.24356435643563h18v18v27v18h-18h-117.24356435643563a18,18 0 0 1 -18,-18v-27a18,18 0 0 1 18,-18z" fill="#61bb46" stroke="transparent" stroke-width="0" ></path><svg x="14.999999999999993" y="15" fill="#fff" ><path d="M9.104 32.456L9.104 32.456 0 32.456 0 0.545 0 0.545Q5.816 0.262 8.387 0.262L8.387 0.262 8.387 0.262Q13.113 0.262 15.705 2.298L15.705 2.298 15.705 2.298Q18.297 4.335 18.297 8.124L18.297 8.124 18.297 8.124Q18.297 10.347 16.642 12.177L16.642 12.177 16.642 12.177Q14.986 14.006 12.983 14.463L12.983 14.463 12.983 14.463Q16.772 15.378 18.504 17.491L18.504 17.491 18.504 17.491Q20.235 19.604 20.235 23.242L20.235 23.242 20.235 23.242Q20.235 27.446 17.153 29.951L17.153 29.951 17.153 29.951Q14.071 32.456 9.104 32.456M4.357 4.03L4.357 4.03 4.357 13.2 4.357 13.2Q5.729 13.332 7.754 13.332L7.754 13.332 7.754 13.332Q13.94 13.332 13.94 8.299L13.94 8.299 13.94 8.299Q13.94 3.877 8.256 3.877L8.256 3.877 8.256 3.877Q6.078 3.877 4.357 4.03M7.864 16.468L4.357 16.576 4.357 28.753 4.357 28.753Q6.6 28.971 7.799 28.971L7.799 28.971 7.799 28.971Q11.893 28.971 13.778 27.435L13.778 27.435 13.778 27.435Q15.661 25.899 15.661 22.544L15.661 22.544 15.661 22.544Q15.661 19.43 13.864 17.949L13.864 17.949 13.864 17.949Q12.068 16.468 7.864 16.468L7.864 16.468ZM44.022 32.456L25.245 32.456 25.245 0.545 29.602 0.545 29.602 28.535 44.022 28.535 44.022 32.456ZM70.792 32.456L65.956 32.456 63.757 25.725 51.885 25.725 49.533 32.456 44.653 32.456 57.614 0.109 58.769 0.109 70.792 32.456M62.515 22.523L57.985 8.473 53.04 22.523 62.515 22.523ZM94.514 1.721L94.514 1.721 93.054 5.446 93.054 5.446Q90.962 3.922 86.476 3.922L86.476 3.922 86.476 3.922Q82.271 3.922 79.734 7.536L79.734 7.536 79.734 7.536Q77.195 11.152 77.195 16.86L77.195 16.86 77.195 16.86Q77.195 22.305 79.799 25.693L79.799 25.693 79.799 25.693Q82.403 29.079 86.519 29.079L86.519 29.079 86.519 29.079Q91.006 29.079 93.424 25.899L93.424 25.899 95.819 29.232 95.819 29.232Q92.03 33.001 86.062 33.001L86.062 33.001 86.062 33.001Q79.81 33.001 76.215 28.491L76.215 28.491 76.215 28.491Q72.622 23.983 72.622 16.599L72.622 16.599 72.622 16.599Q72.622 9.453 76.456 4.727L76.456 4.727 76.456 4.727Q80.29 0 86.366 0L86.366 0 86.366 0Q91.572 0 94.514 1.721ZM123.244 32.456L118.43 32.456 109.433 17.775 105.186 23.808 105.186 32.456 100.829 32.456 100.829 0.545 105.186 0.545 105.186 17.905 117.036 0.545 121.893 0.545 112.352 14.377 123.244 32.456Z" ></path></svg></svg><svg x="165.24356435643563" y="7" ><path d="M18,0h82.00743243243244a18,18 0 0 1 18,18v27a18,18 0 0 1 -18,18h-82.00743243243244h-18v-18v-27v-18h18z" fill="#fff" stroke="transparent" stroke-width="0" ></path><svg x="15" y="15" fill="#61bb46" ><path d="M9.32 33L9.32 33 0 33 0 0.335 0 0.335Q5.953 0.046 8.585 0.046L8.585 0.046 8.585 0.046Q13.423 0.046 16.077 2.13L16.077 2.13 16.077 2.13Q18.73 4.215 18.73 8.094L18.73 8.094 18.73 8.094Q18.73 10.369 17.036 12.242L17.036 12.242 17.036 12.242Q15.341 14.115 13.29 14.582L13.29 14.582 13.29 14.582Q17.169 15.519 18.941 17.682L18.941 17.682 18.941 17.682Q20.714 19.845 20.714 23.569L20.714 23.569 20.714 23.569Q20.714 27.872 17.559 30.436L17.559 30.436 17.559 30.436Q14.404 33 9.32 33M4.46 3.902L4.46 3.902 4.46 13.29 4.46 13.29Q5.864 13.424 7.937 13.424L7.937 13.424 7.937 13.424Q14.27 13.424 14.27 8.272L14.27 8.272 14.27 8.272Q14.27 3.746 8.451 3.746L8.451 3.746 8.451 3.746Q6.221 3.746 4.46 3.902M8.049 16.634L4.46 16.745 4.46 29.21 4.46 29.21Q6.756 29.433 7.983 29.433L7.983 29.433 7.983 29.433Q12.175 29.433 14.104 27.861L14.104 27.861 14.104 27.861Q16.031 26.289 16.031 22.855L16.031 22.855 16.031 22.855Q16.031 19.666 14.192 18.151L14.192 18.151 14.192 18.151Q12.353 16.634 8.049 16.634L8.049 16.634ZM31.083 33L26.623 33 26.623 0.335 31.083 0.335 31.083 33ZM61.786 33L56.68 33 47.962 18.976 47.962 18.976Q46.467 18.976 43.235 18.753L43.235 18.753 43.235 33 38.775 33 38.775 0.335 38.775 0.335Q39.02 0.335 42.243 0.167L42.243 0.167 42.243 0.167Q45.464 0 46.935 0L46.935 0 46.935 0Q58.708 0 58.708 9.365L58.708 9.365 58.708 9.365Q58.708 12.443 56.814 14.906L56.814 14.906 56.814 14.906Q54.918 17.371 52.31 17.973L52.31 17.973 61.786 33M43.235 4.348L43.235 4.348 43.235 14.961 43.235 14.961Q44.84 15.184 46.357 15.184L46.357 15.184 46.357 15.184Q50.37 15.184 52.198 13.892L52.198 13.892 52.198 13.892Q54.026 12.598 54.026 9.276L54.026 9.276 54.026 9.276Q54.026 6.534 52.065 5.329L52.065 5.329 52.065 5.329Q50.103 4.125 45.866 4.125L45.866 4.125 45.866 4.125Q45.197 4.125 43.235 4.348ZM71.708 33L71.708 33 65.131 33 65.131 0.335 65.131 0.335Q71.418 0.112 73.18 0.112L73.18 0.112 73.18 0.112Q80.026 0.112 84.016 4.27L84.016 4.27 84.016 4.27Q88.007 8.429 88.007 15.341L88.007 15.341 88.007 15.341Q88.007 33 71.708 33M69.59 4.348L69.59 4.348 69.59 28.763 69.59 28.763Q71.084 28.988 73.291 28.988L73.291 28.988 73.291 28.988Q77.973 28.988 80.65 25.475L80.65 25.475 80.65 25.475Q83.325 21.963 83.325 15.72L83.325 15.72 83.325 15.72Q83.325 4.125 72.912 4.125L72.912 4.125 72.912 4.125Q72.287 4.125 69.59 4.348Z" ></path></svg></svg></svg>